<svg xmlns="http://www.w3.org/2000/svg" viewBox="0 0 320 320" role="img" aria-labelledby="title desc" shape-rendering="crispEdges">
  <title id="title">Cubone pixel art</title>
  <desc id="desc">Sprite pixel art de Cubone para pagina no encontrada.</desc>
  <rect width="320" height="320" fill="#e8ddd3"/>
  <g transform="translate(48 40) scale(8)">
    <rect x="5" y="26" width="22" height="1" fill="#b8afa5"/>
    <rect x="7" y="24" width="4" height="2" fill="#f2eee8"/>
    <rect x="8" y="22" width="3" height="2" fill="#f2eee8"/>
    <rect x="9" y="21" width="1" height="1" fill="#8e857c"/>
    <rect x="9" y="25" width="2" height="1" fill="#2c2524"/>
    <rect x="4" y="24" width="2" height="2" fill="#af684d"/>
    <rect x="6" y="20" width="2" height="4" fill="#d1814c"/>
    <rect x="7" y="18" width="3" height="3" fill="#f0be65"/>
    <rect x="9" y="17" width="2" height="5" fill="#efc66d"/>
    <rect x="10" y="22" width="2" height="4" fill="#9b5b46"/>
    <rect x="12" y="17" width="5" height="7" fill="#d1814c"/>
    <rect x="13" y="16" width="6" height="2" fill="#d1814c"/>
    <rect x="13" y="24" width="4" height="2" fill="#a96145"/>
    <rect x="17" y="16" width="4" height="7" fill="#efc66d"/>
    <rect x="18" y="17" width="4" height="6" fill="#f2c987"/>
    <rect x="19" y="18" width="5" height="4" fill="#f3d3a0"/>
    <rect x="20" y="15" width="5" height="2" fill="#d1814c"/>
    <rect x="23" y="17" width="2" height="4" fill="#f0be65"/>
    <rect x="24" y="20" width="2" height="2" fill="#d1814c"/>
    <rect x="24" y="22" width="2" height="1" fill="#2c2524"/>
    <rect x="19" y="24" width="5" height="2" fill="#a96145"/>
    <rect x="20" y="26" width="3" height="1" fill="#2c2524"/>
    <rect x="13" y="26" width="2" height="1" fill="#f2eee8"/>
    <rect x="15" y="26" width="1" height="1" fill="#2c2524"/>
    <rect x="10" y="5" width="8" height="2" fill="#8e857c"/>
    <rect x="9" y="7" width="12" height="2" fill="#8e857c"/>
    <rect x="8" y="9" width="13" height="5" fill="#e9e2d8"/>
    <rect x="7" y="12" width="14" height="5" fill="#e9e2d8"/>
    <rect x="8" y="16" width="11" height="3" fill="#b8afa5"/>
    <rect x="6" y="15" width="3" height="2" fill="#b8afa5"/>
    <rect x="7" y="18" width="5" height="1" fill="#2c2524"/>
    <rect x="11" y="10" width="2" height="1" fill="#ffffff"/>
    <rect x="10" y="13" width="3" height="1" fill="#ffffff"/>
    <rect x="15" y="13" width="3" height="2" fill="#5b5353"/>
    <rect x="16" y="14" width="1" height="1" fill="#2c2524"/>
    <rect x="20" y="9" width="3" height="1" fill="#8e857c"/>
    <rect x="22" y="8" width="3" height="1" fill="#8e857c"/>
    <rect x="24" y="6" width="1" height="2" fill="#2c2524"/>
    <rect x="23" y="10" width="2" height="5" fill="#2c2524"/>
    <rect x="22" y="13" width="2" height="6" fill="#4d4848"/>
    <rect x="20" y="15" width="2" height="3" fill="#6d6263"/>
    <rect x="19" y="12" width="3" height="4" fill="#6d6263"/>
    <rect x="20" y="11" width="5" height="1" fill="#4d4848"/>
    <rect x="18" y="13" width="1" height="3" fill="#2c2524"/>
    <rect x="19" y="14" width="1" height="2" fill="#d1814c"/>
    <rect x="20" y="13" width="2" height="4" fill="#f1c884"/>
    <rect x="21" y="14" width="1" height="2" fill="#ffffff"/>
    <rect x="22" y="14" width="1" height="2" fill="#af684d"/>
    <rect x="25" y="13" width="2" height="2" fill="#8e857c"/>
    <rect x="25" y="15" width="1" height="4" fill="#8e857c"/>
    <rect x="24" y="19" width="1" height="2" fill="#4d4848"/>
    <rect x="14" y="4" width="1" height="1" fill="#2c2524"/>
    <rect x="16" y="6" width="1" height="1" fill="#2c2524"/>
  </g>
</svg>
